# xmcd CD database file
#
# Track frame offsets:
#	150
#	16102
#	33576
#	44794
#	62363
#	74879
#	91079
#	111556
#	132808
#	149047
#	161668
#	178285
#	196798
#
# Disc length: 2857 seconds
#
# Revision: 11
# Processed by: cddbd v1.5.2PL0 Copyright (c) Steve Scherf et al.
# Submitted via: CDex 2.20
#
DISCID=c40b270d
DTITLE=The Common Linnets - The Common Linnets
DYEAR=2014
DGENRE=Country
TTITLE0=Calm after the Storm
TTITLE1=Hungry Hands
TTITLE2=Arms of Salvation
TTITLE3=Still Loving after You
TTITLE4=Sun Song
TTITLE5=Lovers and Liars
TTITLE6=Broken But Home
TTITLE7=Before Complete Surrender
TTITLE8=Where Do I Go with Me
TTITLE9=Time Has No Mercy
TTITLE10=Give Me a Reason to Write You One
TTITLE11=When Love Was King
TTITLE12=Love Goes On
EXTD=Year: 2014\n\n\n\n\n\n                                                      www.thecommonlinnets.com YEAR: 2014
EXTT0=
EXTT1=
EXTT2=
EXTT3=
EXTT4=
EXTT5=
EXTT6=
EXTT7=
EXTT8=
EXTT9=
EXTT10=
EXTT11=
EXTT12=
PLAYORDER=
